<svg width="20" height="20" viewBox="0 0 20 20" fill="none" xmlns="http://www.w3.org/2000/svg">
<path fill-rule="evenodd" clip-rule="evenodd" d="M4.63236 8.5069C3.73026 8.5069 3.54199 8.67877 3.54199 9.50227V10.9953C3.54199 11.8188 3.73026 11.9907 4.63236 11.9907H6.8131V17.9629C6.8131 18.7864 7.00137 18.9583 7.90346 18.9583H10.0842C10.9863 18.9583 11.1746 18.7864 11.1746 17.9629V11.9907H13.6232C14.3074 11.9907 14.4837 11.8693 14.6716 11.2688L15.1389 9.77573C15.4609 8.74701 15.2625 8.5069 14.0905 8.5069H11.1746V6.01848C11.1746 5.46875 11.6627 5.02311 12.2649 5.02311H15.3683C16.2704 5.02311 16.4587 4.85124 16.4587 4.02774V2.037C16.4587 1.21349 16.2704 1.04163 15.3683 1.04163H12.2649C9.25397 1.04163 6.8131 3.26984 6.8131 6.01848V8.5069H4.63236Z" fill="#2C3B47"/>
</svg>
