<svg width="20" height="21" viewBox="0 0 20 21" fill="none">
  <path
    d="M6.50002 2.4668H13.5C16.1667 2.4668 18.3334 4.63346 18.3334 7.30013V14.3001C18.3334 15.582 17.8241 16.8114 16.9177 17.7178C16.0113 18.6242 14.7819 19.1335 13.5 19.1335H6.50002C3.83335 19.1335 1.66669 16.9668 1.66669 14.3001V7.30013C1.66669 6.01825 2.17591 4.78887 3.08234 3.88245C3.98876 2.97602 5.21814 2.4668 6.50002 2.4668ZM6.33335 4.13346C5.5377 4.13346 4.77464 4.44953 4.21203 5.01214C3.64942 5.57475 3.33335 6.33781 3.33335 7.13346V14.4668C3.33335 16.1251 4.67502 17.4668 6.33335 17.4668H13.6667C14.4623 17.4668 15.2254 17.1507 15.788 16.5881C16.3506 16.0255 16.6667 15.2624 16.6667 14.4668V7.13346C16.6667 5.47513 15.325 4.13346 13.6667 4.13346H6.33335ZM14.375 5.38346C14.6513 5.38346 14.9162 5.49321 15.1116 5.68856C15.3069 5.88391 15.4167 6.14886 15.4167 6.42513C15.4167 6.7014 15.3069 6.96635 15.1116 7.1617C14.9162 7.35705 14.6513 7.4668 14.375 7.4668C14.0988 7.4668 13.8338 7.35705 13.6384 7.1617C13.4431 6.96635 13.3334 6.7014 13.3334 6.42513C13.3334 6.14886 13.4431 5.88391 13.6384 5.68856C13.8338 5.49321 14.0988 5.38346 14.375 5.38346ZM10 6.63346C11.1051 6.63346 12.1649 7.07245 12.9463 7.85385C13.7277 8.63525 14.1667 9.69506 14.1667 10.8001C14.1667 11.9052 13.7277 12.965 12.9463 13.7464C12.1649 14.5278 11.1051 14.9668 10 14.9668C8.89495 14.9668 7.83514 14.5278 7.05374 13.7464C6.27234 12.965 5.83335 11.9052 5.83335 10.8001C5.83335 9.69506 6.27234 8.63525 7.05374 7.85385C7.83514 7.07245 8.89495 6.63346 10 6.63346ZM10 8.30013C9.33698 8.30013 8.70109 8.56352 8.23225 9.03236C7.76341 9.5012 7.50002 10.1371 7.50002 10.8001C7.50002 11.4632 7.76341 12.0991 8.23225 12.5679C8.70109 13.0367 9.33698 13.3001 10 13.3001C10.6631 13.3001 11.2989 13.0367 11.7678 12.5679C12.2366 12.0991 12.5 11.4632 12.5 10.8001C12.5 10.1371 12.2366 9.5012 11.7678 9.03236C11.2989 8.56352 10.6631 8.30013 10 8.30013Z"
    fill="currentColor" />
</svg>