<svg width="20" height="20" viewBox="0 0 20 20" fill="none" xmlns="http://www.w3.org/2000/svg">
<path fill-rule="evenodd" clip-rule="evenodd" d="M10.0478 1.45835C11.8734 1.45834 13.3073 1.45834 14.4268 1.60885C15.574 1.76309 16.4842 2.08562 17.1994 2.80078C17.9146 3.51595 18.2371 4.42616 18.3913 5.57337C18.5418 6.69288 18.5418 8.12676 18.5418 9.95232V9.95234V9.95236V9.95238V10.0477V10.0477V10.0477V10.0477C18.5418 11.8733 18.5418 13.3072 18.3913 14.4267C18.2371 15.5739 17.9146 16.4841 17.1994 17.1993C16.4842 17.9144 15.574 18.237 14.4268 18.3912C13.3073 18.5417 11.8734 18.5417 10.0478 18.5417H10.0478H10.0478H9.95252H9.9525H9.95248C8.12691 18.5417 6.69302 18.5417 5.57352 18.3912C4.4263 18.237 3.51609 17.9144 2.80092 17.1993C2.08576 16.4841 1.76323 15.5739 1.60899 14.4267C1.45848 13.3072 1.45849 11.8733 1.4585 10.0477V9.95238C1.45849 8.12679 1.45848 6.69289 1.60899 5.57337C1.76323 4.42616 2.08576 3.51595 2.80092 2.80078C3.51609 2.08562 4.4263 1.76309 5.57352 1.60885C6.69303 1.45834 8.12693 1.45834 9.95252 1.45835H10.0478ZM13.7502 10C13.7502 12.0711 12.0712 13.75 10.0002 13.75C7.9291 13.75 6.25016 12.0711 6.25016 10C6.25016 7.92895 7.9291 6.25002 10.0002 6.25002C12.0712 6.25002 13.7502 7.92895 13.7502 10ZM14.5937 6.25002C15.0519 6.25002 15.4233 5.87692 15.4233 5.41669C15.4233 4.95645 15.0519 4.58335 14.5937 4.58335H14.5863C14.1281 4.58335 13.7567 4.95645 13.7567 5.41669C13.7567 5.87692 14.1281 6.25002 14.5863 6.25002H14.5937Z" fill="#2C3B47"/>
</svg>
