<svg width="20" height="21" viewBox="0 0 20 21" fill="none">
  <path
    d="M15.8333 3.30029C16.2754 3.30029 16.6993 3.47589 17.0118 3.78845C17.3244 4.10101 17.5 4.52493 17.5 4.96696V16.6336C17.5 17.0757 17.3244 17.4996 17.0118 17.8121C16.6993 18.1247 16.2754 18.3003 15.8333 18.3003H4.16667C3.72464 18.3003 3.30072 18.1247 2.98816 17.8121C2.67559 17.4996 2.5 17.0757 2.5 16.6336V4.96696C2.5 4.52493 2.67559 4.10101 2.98816 3.78845C3.30072 3.47589 3.72464 3.30029 4.16667 3.30029H15.8333ZM15.4167 16.217V11.8003C15.4167 11.0798 15.1304 10.3888 14.621 9.87932C14.1115 9.36985 13.4205 9.08363 12.7 9.08363C11.9917 9.08363 11.1667 9.51696 10.7667 10.167V9.24196H8.44167V16.217H10.7667V12.1086C10.7667 11.467 11.2833 10.942 11.925 10.942C12.2344 10.942 12.5312 11.0649 12.75 11.2837C12.9688 11.5025 13.0917 11.7992 13.0917 12.1086V16.217H15.4167ZM5.73333 7.93363C6.10464 7.93363 6.46073 7.78613 6.72328 7.52358C6.98583 7.26102 7.13333 6.90493 7.13333 6.53363C7.13333 5.75863 6.50833 5.12529 5.73333 5.12529C5.35982 5.12529 5.0016 5.27367 4.73749 5.53778C4.47338 5.8019 4.325 6.16011 4.325 6.53363C4.325 7.30863 4.95833 7.93363 5.73333 7.93363ZM6.89167 16.217V9.24196H4.58333V16.217H6.89167Z"
    fill="currentColor" />
</svg>