<svg width="20" height="20" viewBox="0 0 22 20" fill="none" xmlns="http://www.w3.org/2000/svg">
  <g clip-path="url(#clip0_1_3411)">
    <path
      d="M0.230957 2.32323C0.230957 1.64982 0.473514 1.09426 0.958608 0.656565C1.4437 0.218848 2.07435 0 2.8505 0C3.61281 0 4.22956 0.215474 4.70081 0.646464C5.1859 1.09091 5.42846 1.67002 5.42846 2.38383C5.42846 3.0303 5.19285 3.569 4.7216 3.99999C4.23651 4.44444 3.59894 4.66666 2.80892 4.66666H2.78813C2.02582 4.66666 1.40907 4.44444 0.937818 3.99999C0.46657 3.55555 0.230957 2.99662 0.230957 2.32323ZM0.501227 20V6.50504H5.11661V20H0.501227ZM7.67378 20H12.2892V12.4646C12.2892 11.9932 12.3446 11.6296 12.4555 11.3737C12.6495 10.9158 12.9441 10.5286 13.3391 10.2121C13.7341 9.8956 14.2296 9.73736 14.8256 9.73736C16.3779 9.73736 17.154 10.7542 17.154 12.7879V20H21.7694V12.2626C21.7694 10.2693 21.2843 8.75756 20.3141 7.72726C19.3439 6.69696 18.0619 6.18181 16.468 6.18181C14.68 6.18181 13.2871 6.92928 12.2892 8.42423V8.46463H12.2684L12.2892 8.42423V6.50504H7.67378C7.7015 6.93601 7.71536 8.27607 7.71536 10.5252C7.71536 12.7744 7.7015 15.9326 7.67378 20Z"
      fill="#2C3B47" />
  </g>
  <defs>
    <clipPath id="clip0_1_3411">
      <rect width="21.5385" height="20" fill="white" transform="translate(0.230957)" />
    </clipPath>
  </defs>
</svg>