<svg width="24" height="24" viewBox="0 0 24 24" fill="none" xmlns="http://www.w3.org/2000/svg">
  <g clip-path="url(#clip0_1_3100)">
    <path
      d="M17.999 7.99976H16.999V5.99976C16.999 3.23976 14.759 0.999756 11.999 0.999756C9.23902 0.999756 6.99902 3.23976 6.99902 5.99976V7.99976H5.99902C4.89402 7.99976 3.99902 8.89476 3.99902 9.99976V19.9998C3.99902 21.1048 4.89402 21.9998 5.99902 21.9998H17.999C19.104 21.9998 19.999 21.1048 19.999 19.9998V9.99976C19.999 8.89476 19.104 7.99976 17.999 7.99976ZM11.999 16.9998C10.894 16.9998 9.99902 16.1048 9.99902 14.9998C9.99902 13.8948 10.894 12.9998 11.999 12.9998C13.104 12.9998 13.999 13.8948 13.999 14.9998C13.999 16.1048 13.104 16.9998 11.999 16.9998ZM15.099 7.99976H8.89902V5.99976C8.89902 4.28976 10.289 2.89976 11.999 2.89976C13.709 2.89976 15.099 4.28976 15.099 5.99976V7.99976Z"
      fill="#AEB6BC" />
  </g>
  <defs>
    <clipPath id="clip0_1_3100">
      <rect width="24" height="24" fill="white" />
    </clipPath>
  </defs>
</svg>