<svg width="158" height="34" viewBox="0 0 158 34" fill="none">
  <path
    d="M16.7261 3.88193L18.9455 0L25.238 3.66975L23.0196 7.55069C22.6302 8.23104 23.2129 9.05883 23.9779 8.91041L28.2304 8.08162L29.6061 15.2876L25.3536 16.1154C18.4753 17.4552 13.2237 10.0091 16.7261 3.88193Z"
    fill="currentColor" />
  <path
    d="M12.881 30.1181L10.6606 34L4.36705 30.3312L6.58643 26.4493C6.97691 25.769 6.39318 24.9412 5.62815 25.0896L1.37666 25.9174L0 18.7124L4.25249 17.8846C11.1318 16.5448 16.3824 23.9909 12.881 30.1181Z"
    fill="currentColor" />
  <path
    d="M13.0722 3.88193L10.8538 0L4.56028 3.66975L6.77967 7.55069C7.16816 8.23104 6.58542 9.05883 5.82039 8.91041L1.5679 8.08162L0.193237 15.2876L4.44573 16.1154C11.325 17.4552 16.5756 10.0091 13.0722 3.88193Z"
    fill="currentColor" />
  <path
    d="M16.5408 30.1181L18.7582 34L25.0527 30.3312L22.8323 26.4493C22.4439 25.769 23.0266 24.9412 23.7916 25.0896L28.0431 25.9174L29.4198 18.7124L25.1673 17.8846C18.288 16.5448 13.0374 23.9909 16.5388 30.1181H16.5408Z"
    fill="currentColor" />
  <path
    d="M137.303 25.6305V18.4045C137.303 17.4034 137.531 16.5049 137.987 15.711C138.459 14.8992 139.128 14.2636 139.994 13.8024C140.86 13.3412 141.892 13.1111 143.087 13.1111C143.646 13.1061 144.202 13.1778 144.741 13.3253C145.22 13.4428 145.681 13.6271 146.111 13.8741C146.536 14.0963 146.898 14.3662 147.198 14.685H147.244C147.565 14.3622 147.931 14.0893 148.33 13.8741C148.769 13.6301 149.238 13.4458 149.725 13.3253C150.272 13.1788 150.835 13.1071 151.401 13.1111C152.598 13.1111 153.629 13.3412 154.494 13.8024C155.36 14.2636 156.029 14.8992 156.501 15.711C156.975 16.5049 157.21 17.4024 157.21 18.4045V25.6305H153.526V18.5241C153.526 18.1266 153.423 17.769 153.219 17.4512C153.032 17.1185 152.763 16.8396 152.44 16.6404C152.098 16.4312 151.705 16.3236 151.306 16.3306C150.899 16.3256 150.5 16.4322 150.149 16.6404C149.825 16.8396 149.557 17.1185 149.37 17.4512C149.179 17.776 149.081 18.1465 149.086 18.5241V25.6305H145.426V18.5241C145.426 18.1266 145.324 17.769 145.119 17.4512C144.927 17.1136 144.65 16.8346 144.316 16.6404C143.975 16.4312 143.582 16.3236 143.182 16.3306C142.776 16.3256 142.376 16.4322 142.026 16.6404C141.702 16.8396 141.434 17.1185 141.246 17.4512C141.055 17.776 140.958 18.1465 140.963 18.5241V25.6305H137.303ZM129.296 25.9164C128.053 25.9164 126.974 25.6783 126.062 25.2012C125.164 24.7081 124.472 24.0486 123.984 23.2218C123.496 22.3801 123.251 21.4487 123.251 20.4317V13.397H126.912V20.336C126.912 20.7654 127.014 21.1628 127.218 21.5284C127.422 21.8781 127.699 22.1649 128.045 22.3871C128.406 22.5943 128.817 22.6979 129.273 22.6979C129.714 22.6979 130.107 22.5943 130.454 22.3871C130.816 22.1649 131.1 21.8781 131.304 21.5284C131.508 21.1628 131.611 20.7654 131.611 20.336V13.397H135.271V20.4317C135.271 21.4487 135.035 22.3801 134.563 23.2218C134.09 24.0486 133.406 24.7091 132.509 25.2012C131.627 25.6773 130.556 25.9164 129.296 25.9164ZM111.46 25.6305V22.6979H117.294C117.451 22.6979 117.592 22.665 117.719 22.6013C117.843 22.5236 117.948 22.418 118.026 22.2925C118.183 22.0364 118.183 21.7127 118.026 21.4577C117.952 21.3352 117.845 21.2356 117.719 21.1708C117.591 21.0911 117.444 21.0503 117.294 21.0523H115.169C114.381 21.0523 113.665 20.9248 113.019 20.6707C112.407 20.4137 111.882 19.9834 111.508 19.4306C111.146 18.8578 110.965 18.1187 110.965 17.2122C110.965 16.5129 111.13 15.8774 111.46 15.3056C111.805 14.7348 112.283 14.2596 112.854 13.921C113.449 13.5723 114.126 13.391 114.814 13.397H120.647V16.3535H115.381C115.172 16.3495 114.969 16.4262 114.814 16.5687C114.675 16.7071 114.597 16.8964 114.601 17.0936C114.601 17.3158 114.673 17.507 114.814 17.6654C114.969 17.8079 115.172 17.8846 115.381 17.8806H117.459C118.341 17.8806 119.096 18.0161 119.726 18.285C120.372 18.54 120.867 18.9534 121.214 19.5262C121.576 20.098 121.757 20.8371 121.757 21.7426C121.757 22.4588 121.576 23.1103 121.214 23.698C120.871 24.2837 120.382 24.7688 119.797 25.1055C119.214 25.4562 118.553 25.6305 117.814 25.6305H111.46ZM103.485 13.1111C104.509 13.1111 105.414 13.2775 106.202 13.6122C106.975 13.91 107.669 14.3832 108.233 14.9948C108.807 15.5945 109.249 16.3097 109.531 17.0936C109.83 17.8885 109.98 18.7701 109.98 19.7404C109.98 20.9487 109.728 22.0215 109.224 22.9589C108.758 23.8574 108.055 24.6085 107.194 25.1294C106.327 25.6534 105.32 25.9164 104.171 25.9164C103.682 25.9164 103.218 25.8526 102.777 25.7261C102.36 25.6016 101.961 25.4173 101.597 25.1773C101.253 24.9412 100.956 24.6423 100.723 24.2947H100.651V30.8054H96.9914V19.7394C96.9914 18.3876 97.2594 17.2191 97.7943 16.234C98.3133 15.2647 99.1013 14.4688 100.062 13.9439C101.038 13.388 102.179 13.1111 103.485 13.1111ZM103.485 16.3067C102.919 16.3067 102.423 16.4491 101.998 16.736C101.589 17.006 101.274 17.3875 101.053 17.8806C100.834 18.3567 100.723 18.8976 100.723 19.5013C100.723 20.1059 100.834 20.6468 101.053 21.123C101.26 21.5842 101.587 21.9797 101.998 22.2685C102.423 22.5385 102.919 22.674 103.485 22.674C104.052 22.674 104.54 22.5375 104.95 22.2685C105.361 21.9797 105.688 21.5842 105.895 21.123C106.131 20.6468 106.249 20.1059 106.249 19.5013C106.249 18.8976 106.131 18.3577 105.895 17.8806C105.675 17.3875 105.359 17.005 104.95 16.736C104.54 16.4491 104.052 16.3067 103.485 16.3067ZM91.429 25.6305V13.397H95.1137V25.6305H91.429ZM93.2709 12.0144C92.6882 12.0144 92.1851 11.8002 91.7598 11.3709C91.3354 10.9415 91.1222 10.4325 91.1222 9.84378C91.1222 9.25607 91.3354 8.74704 91.7598 8.31771C92.1851 7.87244 92.6882 7.6503 93.2709 7.6503C93.8536 7.6503 94.3577 7.87244 94.783 8.31771C95.2074 8.74704 95.4195 9.25607 95.4195 9.84378C95.4195 10.4325 95.2074 10.9405 94.783 11.3709C94.3577 11.8002 93.8536 12.0144 93.2709 12.0144ZM83.4221 25.9164C82.179 25.9164 81.0613 25.6385 80.0691 25.0816C79.0949 24.5427 78.2801 23.7528 77.7073 22.7925C77.1415 21.8233 76.8576 20.7345 76.8576 19.5252C76.8576 18.3009 77.1415 17.2122 77.7073 16.2589C78.2801 15.2986 79.0949 14.5087 80.0691 13.9698C81.0613 13.397 82.179 13.1111 83.4221 13.1111C84.6663 13.1111 85.776 13.397 86.7522 13.9698C87.7224 14.5047 88.5303 15.2956 89.0901 16.2589C89.6729 17.2122 89.9637 18.3009 89.9637 19.5252C89.9637 20.7345 89.6729 21.8233 89.0901 22.7925C88.5303 23.7558 87.7224 24.5467 86.7522 25.0816C85.761 25.6385 84.6504 25.9164 83.4221 25.9164ZM83.4221 22.6979C84.0049 22.6979 84.5089 22.5534 84.9343 22.2685C85.3596 21.9817 85.7013 21.5872 85.9254 21.123C86.1625 20.6468 86.28 20.1059 86.28 19.5013C86.28 18.9136 86.1625 18.3816 85.9254 17.9035C85.7013 17.4403 85.3596 17.0448 84.9343 16.7599C84.5089 16.473 84.0049 16.3306 83.4221 16.3306C82.8404 16.3306 82.3284 16.473 81.8881 16.7599C81.4627 17.0458 81.1201 17.4403 80.8959 17.9045C80.6549 18.4016 80.5333 18.9494 80.5423 19.5023C80.5423 20.1059 80.6599 20.6468 80.8959 21.123C81.1201 21.5872 81.4627 21.9817 81.8881 22.2685C82.3284 22.5534 82.8404 22.6979 83.4221 22.6979ZM64.9618 30.4717V27.299H71.0063C71.2275 27.306 71.4416 27.2193 71.597 27.0609C71.7524 26.9225 71.8391 26.7213 71.8331 26.5121V23.8175H71.7624C71.4636 24.1692 71.1219 24.481 70.7473 24.7479C70.4007 25.0029 70.0062 25.1932 69.5659 25.3207C69.0977 25.4532 68.6126 25.5179 68.1255 25.511C67.0557 25.511 66.0944 25.2559 65.2447 24.7479C64.4109 24.223 63.7485 23.4998 63.2604 22.5773C62.7892 21.6559 62.5531 20.607 62.5531 19.4306C62.5531 18.2701 62.7972 17.2122 63.2853 16.2589C63.7883 15.3056 64.5205 14.5415 65.4808 13.9698C66.4411 13.397 67.6145 13.1111 69.0001 13.1111C70.322 13.1111 71.4636 13.389 72.4238 13.9459C73.3881 14.4748 74.177 15.2787 74.691 16.2579C75.2259 17.2441 75.4939 18.4045 75.4939 19.7404V26.8936C75.4939 27.9903 75.1712 28.858 74.5257 29.4935C73.8961 30.145 73.0225 30.4707 71.9048 30.4707L64.9618 30.4717ZM69.023 22.411C69.5898 22.411 70.0779 22.2835 70.4883 22.0295C70.8928 21.7645 71.2185 21.3939 71.4317 20.9566C71.6558 20.4964 71.7684 19.9904 71.7624 19.4774C71.7624 18.9056 71.6528 18.3816 71.4327 17.9045C71.2295 17.4473 70.9007 17.0588 70.4873 16.7828C70.0779 16.497 69.5898 16.3535 69.022 16.3535C68.4722 16.3535 67.9841 16.489 67.5587 16.7599C67.1493 17.0299 66.8345 17.3955 66.6144 17.8557C66.3942 18.3179 66.2847 18.8339 66.2847 19.4067C66.2847 19.9635 66.3932 20.4715 66.6144 20.9327C66.8345 21.377 67.1493 21.7356 67.5597 22.0056C67.9841 22.2755 68.4722 22.411 69.023 22.411ZM55.112 25.9164C53.8689 25.9164 52.7512 25.6385 51.76 25.0816C50.7858 24.5427 49.971 23.7528 49.3972 22.7925C48.8314 21.8233 48.5475 20.7345 48.5475 19.5252C48.5475 18.3009 48.8314 17.2122 49.3972 16.2589C49.971 15.2986 50.7858 14.5087 51.76 13.9698C52.7512 13.397 53.8689 13.1111 55.112 13.1111C56.3562 13.1111 57.4659 13.397 58.4421 13.9698C59.4123 14.5047 60.2202 15.2966 60.78 16.2589C61.3628 17.2122 61.6536 18.3009 61.6536 19.5252C61.6536 20.7345 61.3628 21.8233 60.78 22.7925C60.2202 23.7558 59.4123 24.5467 58.4421 25.0816C57.451 25.6385 56.3403 25.9164 55.112 25.9164ZM55.112 22.6979C55.6948 22.6979 56.1978 22.5534 56.6242 22.2685C57.0495 21.9817 57.3912 21.5872 57.6153 21.123C57.8514 20.6468 57.9689 20.1059 57.9689 19.5013C57.9689 18.9136 57.8514 18.3816 57.6153 17.9035C57.3912 17.4403 57.0495 17.0458 56.6242 16.7599C56.1988 16.473 55.6948 16.3306 55.112 16.3306C54.5303 16.3306 54.0183 16.473 53.578 16.7599C53.1526 17.0458 52.81 17.4403 52.5858 17.9045C52.3448 18.4016 52.2242 18.9494 52.2322 19.5023C52.2322 20.1059 52.3498 20.6468 52.5858 21.123C52.81 21.5872 53.1526 21.9817 53.578 22.2685C54.0183 22.5534 54.5303 22.6979 55.112 22.6979ZM43.3905 25.6305C42.3665 25.6305 41.469 25.4004 40.698 24.9392C39.9479 24.4999 39.3283 23.8663 38.904 23.1033C38.4786 22.3393 38.2654 21.4965 38.2654 20.5751V8.9373H42.233V20.861C42.233 21.2435 42.3675 21.5762 42.6345 21.8631C42.9014 22.148 43.2322 22.2925 43.6256 22.2925H47.9947V25.6305H43.3905Z"
    fill="currentColor" />
</svg>