<svg width="158" height="30" viewBox="0 0 158 30" fill="none">
  <path
    d="M14.2975 29.5C22.1942 29.5 28.596 23.0087 28.596 15.0005V4.85045C28.596 2.4478 26.6751 0.5 24.3063 0.5H15.0132V6.86095C15.0132 8.31309 15.0997 9.81599 15.8512 11.0521C16.9381 12.8427 18.7395 14.0669 20.7859 14.4063L21.0606 14.4511C21.2915 14.5317 21.4468 14.7517 21.4468 15.0005C21.4468 15.2483 21.2915 15.4683 21.0606 15.5489L20.7859 15.5937C17.7552 16.0963 15.3784 18.5059 14.8838 21.5804L14.839 21.8581C14.7603 22.093 14.5424 22.2502 14.2975 22.2502C14.0537 22.2502 13.8357 22.093 13.7571 21.8581L13.7123 21.5804C13.3779 19.5042 12.1716 17.6778 10.4049 16.5751C9.18668 15.8137 7.70368 15.7251 6.27245 15.7251H0.0169983C0.39123 23.3958 6.6417 29.5 14.2975 29.5Z"
    fill="currentColor" />
  <path
    d="M0 14.2749H6.27237C7.70361 14.2749 9.1866 14.1863 10.4048 13.4249C11.3564 12.8307 12.1586 12.0176 12.7448 11.0522C13.4962 9.81599 13.5828 8.31309 13.5828 6.86095V0.5H4.28973C1.91993 0.5 0 2.4478 0 4.85045V14.2749ZM33.2101 1.95015C33.2101 2.75037 32.5701 3.4003 31.7809 3.4003C30.9906 3.4003 30.3506 2.75037 30.3506 1.95015C30.3506 1.14893 30.9906 0.5 31.7809 0.5C32.5701 0.5 33.2101 1.14893 33.2101 1.95015ZM151.351 9.27554C155.348 9.27554 157.277 12.1062 157.277 15.3857V21.5446H153.094V16.1162C153.094 14.6302 152.559 13.404 151.026 13.404C149.493 13.404 148.981 14.6302 148.981 16.1162V21.5436H144.798V16.1162C144.798 14.6302 144.287 13.404 142.753 13.404C141.22 13.404 140.684 14.6302 140.684 16.1162V21.5436H136.503V15.3847C136.503 12.1062 138.431 9.27455 142.428 9.27455C144.613 9.27455 146.192 10.1474 146.913 11.5866C147.679 10.1474 149.352 9.27355 151.351 9.27355V9.27554ZM128.987 17.7694C130.334 17.7694 130.916 16.5193 130.916 15.0323V9.74632H135.097V15.5509C135.097 19.0195 133.099 21.8989 128.987 21.8989C124.873 21.8989 122.875 19.0205 122.875 15.5509V9.74632H127.058V15.0323C127.058 16.5183 127.638 17.7694 128.987 17.7694ZM116.725 21.9218C114.099 21.9218 112.402 21.0012 111.403 19.2086L114.423 17.4858C114.842 18.2412 115.47 18.6184 116.515 18.6184C117.375 18.6184 117.77 18.3119 117.77 17.9336C117.77 16.4954 111.635 17.9585 111.635 13.3811C111.635 11.1626 113.494 9.3701 116.654 9.3701C119.42 9.3701 120.93 10.7376 121.605 12.0594L118.583 13.8051C118.328 13.0975 117.538 12.6725 116.747 12.6725C116.143 12.6725 115.818 12.9323 115.818 13.2866C115.818 14.7487 121.953 13.404 121.953 17.8401C121.953 20.3174 119.559 21.9218 116.725 21.9218ZM102.111 26.9709H97.9274V15.6226C97.9274 12.0116 100.6 9.39299 104.318 9.39299C107.943 9.39299 110.709 12.2007 110.709 15.6226C110.709 19.3967 108.245 21.8989 104.55 21.8989C103.69 21.8989 102.831 21.6391 102.111 21.237V26.9709ZM104.318 17.9107C105.643 17.9107 106.526 16.8727 106.526 15.6455C106.526 14.3954 105.643 13.3802 104.318 13.3802C102.993 13.3802 102.111 14.3954 102.111 15.6464C102.111 16.8727 102.993 17.9107 104.318 17.9107ZM93.7382 8.49722C92.3666 8.49722 91.228 7.34068 91.228 5.94826C91.228 4.55684 92.3666 3.4003 93.7382 3.4003C95.1087 3.4003 96.2473 4.55684 96.2473 5.94826C96.2473 7.34068 95.1087 8.49722 93.7382 8.49722ZM91.647 9.74632H95.8293V21.5446H91.647V9.74632ZM83.621 21.8989C79.9961 21.8989 77.2311 19.0673 77.2311 15.6226C77.2311 12.2007 79.9961 9.3701 83.621 9.3701C87.2468 9.3701 90.0118 12.2007 90.0118 15.6226C90.0118 19.0673 87.2468 21.8989 83.621 21.8989ZM83.621 17.9107C84.9457 17.9107 85.8285 16.8727 85.8285 15.6455C85.8285 14.3954 84.9457 13.3573 83.621 13.3573C82.2962 13.3573 81.4134 14.3954 81.4134 15.6455C81.4134 16.8727 82.2962 17.9107 83.621 17.9107ZM69.3325 27.3253C66.4521 27.3253 64.36 26.0274 63.291 23.7143L66.7536 21.8272C67.1249 22.6295 67.8216 23.4556 69.2628 23.4556C70.7737 23.4556 71.7729 22.4881 71.8894 20.7892C71.331 21.2848 70.4482 21.662 69.1235 21.662C65.8937 21.662 63.29 19.138 63.29 15.5977C63.29 12.1778 66.0559 9.39299 69.6818 9.39299C73.3993 9.39299 76.0716 12.0126 76.0716 15.6226V20.2935C76.0716 24.5414 73.1664 27.3253 69.3325 27.3253ZM69.6112 17.6749C70.8662 17.6749 71.8187 16.802 71.8187 15.5041C71.8187 14.2301 70.8672 13.3802 69.6112 13.3802C68.38 13.3802 67.4036 14.2301 67.4036 15.5051C67.4036 16.802 68.38 17.6749 69.6112 17.6749ZM56.1955 21.8989C52.5706 21.8989 49.8047 19.0673 49.8047 15.6226C49.8047 12.2007 52.5706 9.3701 56.1955 9.3701C59.8204 9.3701 62.5863 12.2007 62.5863 15.6226C62.5863 19.0673 59.8214 21.8989 56.1955 21.8989ZM56.1955 17.9107C57.5203 17.9107 58.4031 16.8727 58.4031 15.6455C58.4031 14.3954 57.5203 13.3573 56.1955 13.3573C54.8708 13.3573 53.988 14.3954 53.988 15.6455C53.988 16.8727 54.8708 17.9107 56.1955 17.9107ZM42.1877 5.61882V17.5335H49.113V21.5446H41.6064C38.958 21.5446 37.889 20.1283 37.889 17.8869V5.61882H42.1877Z"
    fill="currentColor" />
</svg>