<svg width="168" height="34" viewBox="0 0 168 34" fill="none">
  <path
    d="M21.0632 10.1406C19.7084 9.23387 18.1149 8.75025 16.4846 8.75025V0.5C25.5882 0.5 32.9683 7.88707 32.9683 17.0005C32.9683 26.1129 25.5882 33.5 16.4846 33.5C7.38013 33.5 0 26.1129 0 17.0005H8.24232C8.24232 20.9358 11.0202 24.3241 14.8762 25.0912C18.7333 25.8592 22.5943 23.7929 24.0986 20.1569C25.604 16.5208 24.3325 12.3268 21.0632 10.1406Z"
    fill="currentColor" />
  <path
    d="M8.24232 0.5C8.24232 5.05671 4.55176 8.75025 0 8.75025V17.0005C9.10451 17.0005 16.4846 9.61244 16.4846 0.5H8.24232Z"
    fill="currentColor" />
  <path
    d="M103.537 12.424H99.5381V25.1388H103.537V12.424ZM99.9831 10.0425C100.401 10.4608 100.924 10.6699 101.551 10.6699C102.178 10.6699 102.693 10.4608 103.093 10.0425C103.494 9.6065 103.694 9.08324 103.694 8.47277C103.694 7.84546 103.494 7.32121 103.093 6.903C102.693 6.48478 102.178 6.27469 101.551 6.27469C100.924 6.27469 100.401 6.48478 99.9831 6.903C99.5817 7.32121 99.3815 7.84546 99.3815 8.47277C99.3815 9.08324 99.5817 9.6065 99.9831 10.0425ZM42.164 25.1388V6.66713H46.2678V21.5295H54.4487V25.1398H42.164V25.1388Z"
    fill="currentColor" />
  <path
    d="M61.8387 25.4271C60.5315 25.4271 59.3473 25.1378 58.2839 24.563C57.2602 23.9911 56.4039 23.1617 55.8014 22.1558C55.1909 21.1439 54.8857 20.0102 54.8857 18.7546C54.8857 17.499 55.1909 16.3742 55.8014 15.3802C56.4069 14.3891 57.2632 13.5775 58.2839 13.0255C59.3294 12.4319 60.5147 12.1356 61.8387 12.1356C63.1627 12.1356 64.348 12.4239 65.3935 12.9987C66.4192 13.5557 67.2764 14.3782 67.877 15.3802C68.4865 16.3742 68.7917 17.499 68.7917 18.7546C68.7917 20.0102 68.4865 21.1439 67.877 22.1558C67.2735 23.1617 66.4172 23.9911 65.3935 24.563C64.348 25.1387 63.1627 25.4271 61.8387 25.4271ZM61.8387 21.7901C62.4135 21.7901 62.9189 21.6682 63.355 21.4244C63.7831 21.1707 64.128 20.7981 64.348 20.3511C64.5918 19.8804 64.7137 19.3482 64.7137 18.7546C64.7137 18.162 64.5918 17.6466 64.348 17.2116C64.1171 16.7706 63.7623 16.4069 63.3282 16.1641C62.911 15.9034 62.4135 15.7726 61.8387 15.7726C61.2808 15.7726 60.7843 15.9034 60.3492 16.1641C59.9151 16.4069 59.5603 16.7706 59.3294 17.2116C59.0856 17.6655 58.9638 18.1887 58.9638 18.7813C58.9638 19.3561 59.0856 19.8804 59.3294 20.3501C59.5732 20.804 59.9131 21.1618 60.3492 21.4234C60.7843 21.6682 61.2808 21.7901 61.8387 21.7901ZM71.959 30.1097C73.0224 30.5983 74.2502 30.8421 75.6436 30.8421C77.0043 30.8421 78.2143 30.5715 79.2767 30.0314C80.3401 29.4913 81.1765 28.7411 81.787 27.7818C82.3964 26.8225 82.7017 25.6888 82.7017 24.3796V12.4239H78.7812V13.2782C78.4799 13.0265 78.1459 12.8184 77.7882 12.6588C77.1074 12.3278 76.3324 12.1613 75.4613 12.1613C74.2938 12.1613 73.2572 12.4408 72.3505 12.9987C71.4437 13.5388 70.7301 14.29 70.2079 15.2484C69.6846 16.1908 69.424 17.2552 69.424 18.4414C69.424 19.6098 69.6846 20.6742 70.2069 21.6325C70.7073 22.568 71.4466 23.3539 72.3505 23.9099C73.2572 24.4678 74.2938 24.7463 75.4613 24.7463C76.3145 24.7463 77.0905 24.5808 77.7882 24.2498C78.1261 24.0883 78.4304 23.9 78.7029 23.6819V24.4847C78.7029 25.3736 78.4145 26.0634 77.8397 26.5509C77.2818 27.0395 76.5068 27.2843 75.5138 27.2843C74.7121 27.2843 74.0233 27.1446 73.4485 26.8661C72.8916 26.5866 72.3851 26.1773 71.9313 25.6362L69.4755 28.095C70.086 28.9671 70.9135 29.639 71.959 30.1097ZM77.6564 20.8219C77.256 21.0656 76.7764 21.1875 76.2194 21.1875C75.6615 21.1875 75.1729 21.0656 74.7557 20.8219C74.3583 20.581 74.0332 20.2381 73.8142 19.8279C73.5902 19.3997 73.4733 18.9241 73.4743 18.4414C73.4743 17.9172 73.5873 17.4464 73.8142 17.0282C74.0372 16.613 74.3731 16.2681 74.7814 16.0342C75.1996 15.7895 75.6783 15.6676 76.2194 15.6676C76.7764 15.6676 77.256 15.7895 77.6564 16.0342C78.0617 16.2651 78.3897 16.611 78.5979 17.0282C78.8238 17.4464 78.9378 17.9172 78.9378 18.4404C78.9378 18.9647 78.8238 19.4344 78.5979 19.8536C78.3838 20.2599 78.0568 20.5959 77.6564 20.8219ZM91.1174 25.4271C89.8103 25.4271 88.625 25.1378 87.5626 24.563C86.5389 23.9911 85.6827 23.1617 85.0791 22.1558C84.4697 21.1439 84.1644 20.0102 84.1644 18.7546C84.1644 17.499 84.4697 16.3742 85.0791 15.3802C85.6856 14.3891 86.5419 13.5775 87.5626 13.0255C88.6082 12.4319 89.7934 12.1356 91.1174 12.1356C92.4414 12.1356 93.6267 12.4239 94.6722 12.9987C95.6979 13.5557 96.5552 14.3782 97.1547 15.3802C97.7652 16.3742 98.0704 17.499 98.0704 18.7546C98.0704 20.0102 97.7652 21.1439 97.1547 22.1558C96.5522 23.1617 95.6959 23.9911 94.6722 24.563C93.6267 25.1387 92.4414 25.4271 91.1174 25.4271ZM91.1174 21.7901C91.6922 21.7901 92.1976 21.6682 92.6337 21.4244C93.0618 21.1707 93.4067 20.7981 93.6267 20.3511C93.8705 19.8804 93.9924 19.3482 93.9924 18.7546C93.9924 18.162 93.8705 17.6466 93.6267 17.2116C93.3958 16.7706 93.041 16.4069 92.6069 16.1641C92.1897 15.9034 91.6922 15.7726 91.1174 15.7726C90.5595 15.7726 90.063 15.9034 89.6279 16.1641C89.1939 16.4069 88.8391 16.7706 88.6082 17.2116C88.3644 17.6655 88.2425 18.1887 88.2425 18.7813C88.2425 19.3561 88.3644 19.8804 88.6082 20.3501C88.8519 20.804 89.1919 21.1618 89.6279 21.4234C90.063 21.6682 90.5595 21.7901 91.1174 21.7901ZM113.149 25.4004C112.297 25.4004 111.512 25.2359 110.797 24.9029C110.433 24.7364 110.092 24.5263 109.778 24.2785V30.5021H105.831V12.4239H109.83V13.301C110.127 13.0592 110.452 12.8521 110.797 12.6856C111.512 12.3367 112.297 12.1613 113.149 12.1613C114.352 12.1613 115.415 12.4507 116.338 13.0255C117.272 13.5934 118.032 14.408 118.534 15.3802C119.074 16.3742 119.344 17.5089 119.344 18.7813C119.344 20.0548 119.074 21.1875 118.534 22.1825C118.032 23.1537 117.272 23.9683 116.338 24.5372C115.415 25.113 114.352 25.4004 113.149 25.4004ZM112.418 21.7901C112.992 21.7901 113.49 21.6593 113.907 21.3976C114.339 21.141 114.692 20.7693 114.927 20.3254C115.17 19.8715 115.293 19.3561 115.293 18.7813C115.293 18.1877 115.17 17.6655 114.927 17.2116C114.696 16.7706 114.342 16.4069 113.907 16.1641C113.49 15.9034 113.001 15.7726 112.443 15.7726C111.886 15.7726 111.39 15.9034 110.955 16.1641C110.532 16.4128 110.188 16.7765 109.961 17.2116C109.717 17.6655 109.595 18.1887 109.595 18.7813C109.595 19.3561 109.708 19.8715 109.935 20.3244C110.179 20.7783 110.519 21.136 110.955 21.3966C111.39 21.6593 111.877 21.7901 112.418 21.7901Z"
    fill="currentColor" />
  <path
    d="M123.258 25.1645C123.99 25.3568 124.73 25.4529 125.479 25.4529C127.065 25.4529 128.319 25.0862 129.244 24.3539C130.184 23.6215 130.654 22.6354 130.654 21.3977C130.654 20.5949 130.508 19.9498 130.21 19.4612C129.931 18.9726 129.536 18.5594 129.061 18.2571C128.594 17.9628 128.093 17.7259 127.57 17.5515C127.08 17.386 126.582 17.2383 126.081 17.1065C125.611 16.9846 125.227 16.8449 124.93 16.6883C124.635 16.5317 124.486 16.3216 124.486 16.06C124.486 15.8152 124.6 15.6329 124.826 15.511C125.052 15.3713 125.392 15.3019 125.846 15.3019C126.316 15.3019 126.795 15.397 127.283 15.5893C127.788 15.7805 128.241 16.1125 128.641 16.5833L130.916 14.2821C130.341 13.5488 129.592 12.9988 128.668 12.6331C127.762 12.2485 126.769 12.0573 125.689 12.0573C124.661 12.0573 123.764 12.2307 122.997 12.5805C122.23 12.9294 121.637 13.409 121.219 14.0195C120.801 14.6131 120.591 15.3187 120.591 16.1393C120.591 16.9063 120.74 17.5436 121.036 18.049C121.318 18.5227 121.713 18.9181 122.186 19.1996C122.654 19.478 123.154 19.6971 123.676 19.8536C124.199 20.0102 124.695 20.1589 125.166 20.2986C125.636 20.4205 126.02 20.5692 126.316 20.7446C126.63 20.9012 126.786 21.136 126.786 21.4492C126.786 21.694 126.655 21.8862 126.394 22.025C126.15 22.1657 125.793 22.2351 125.323 22.2351C124.677 22.242 124.037 22.1171 123.442 21.8684C122.878 21.6157 122.37 21.251 121.951 20.7961L119.677 23.0982C120.137 23.5888 120.666 24.012 121.245 24.3539C121.873 24.7027 122.544 24.9723 123.258 25.1645ZM137.947 25.4271C136.78 25.4271 135.743 25.1913 134.837 24.7196C133.975 24.2567 133.253 23.57 132.746 22.7316C132.241 21.8773 131.988 20.9002 131.988 19.8011V12.424H135.987V19.7496C135.987 20.1846 136.056 20.5602 136.197 20.8744C136.354 21.1876 136.58 21.4323 136.876 21.6068C137.172 21.7812 137.529 21.8684 137.947 21.8684C138.54 21.8684 139.01 21.685 139.359 21.3194C139.708 20.9358 139.882 20.4116 139.882 19.7496V12.423H143.88V19.7754C143.88 20.8922 143.629 21.8773 143.122 22.7316C142.616 23.57 141.894 24.2567 141.031 24.7196C140.143 25.1913 139.116 25.4271 137.947 25.4271ZM149.868 12.424H145.868V25.1388H149.868V17.7081C149.868 17.272 149.955 16.9063 150.129 16.609C150.321 16.3127 150.575 16.0858 150.888 15.9292C151.216 15.7508 151.586 15.6616 151.959 15.6676C152.534 15.6676 153.013 15.8509 153.396 16.2176C153.797 16.5664 153.998 17.0629 153.998 17.7081V25.1388H157.997V17.7081C157.997 17.272 158.085 16.9063 158.258 16.609C158.45 16.3127 158.703 16.0858 159.016 15.9292C159.345 15.7508 159.715 15.6606 160.089 15.6676C160.663 15.6676 161.142 15.8509 161.525 16.2176C161.926 16.5664 162.126 17.0629 162.126 17.7081V25.1388H166.127V17.2631C166.127 16.1988 165.9 15.292 165.446 14.5428C165.03 13.7936 164.402 13.1841 163.643 12.7896C162.894 12.3714 162.031 12.1623 161.055 12.1623C160.062 12.1623 159.164 12.3804 158.363 12.8154C157.847 13.0899 157.385 13.4546 156.998 13.8917C156.634 13.4318 156.183 13.0483 155.671 12.7639C154.974 12.3625 154.181 12.1613 153.292 12.1613C152.352 12.1613 151.506 12.3625 150.757 12.7639C150.437 12.9264 150.139 13.1276 149.868 13.3634V12.424Z"
    fill="currentColor" />
</svg>