<svg width="20" height="20" viewBox="0 0 20 20" fill="none">
  <path
    d="M13.4764 17.6508C13.1252 17.3536 12.7248 16.8982 12.2532 16.362L10.0366 13.8419C8.93931 12.5943 8.80937 12.046 8.88156 11.9278L9.7135 11.2578L13.0854 8.62035C13.3573 8.40769 13.4053 8.01488 13.1926 7.743C12.98 7.47111 12.5872 7.4231 12.3153 7.63577L8.93983 10.2759L7.92474 11.1044C7.68778 11.3588 7.53666 11.7937 7.70148 12.4121C7.85529 12.9893 8.28673 13.7522 9.20537 14.7995L8.86608 15.4685C8.64696 15.7731 8.44351 16.0559 8.25626 16.2498C8.07021 16.4424 7.73214 16.7254 7.26129 16.6318C6.79662 16.5393 6.5881 16.1552 6.48486 15.9086C6.38001 15.6583 6.2912 15.3187 6.19486 14.9503L5.77693 13.3532C5.54481 12.4662 5.46465 12.2112 5.31359 12.0235C5.29453 11.9998 5.27467 11.9769 5.25408 11.9549C5.0946 11.7841 4.86938 11.6791 4.04442 11.3484L3.99923 11.3303C3.18623 11.0044 2.51656 10.736 2.04815 10.4723C1.59437 10.2168 1.10434 9.84531 1.04796 9.21859C1.0392 9.12119 1.03935 9.02316 1.04841 8.92578C1.10672 8.29918 1.59796 7.9293 2.05255 7.67531C2.52177 7.41313 3.19229 7.14694 4.00628 6.82379L13.993 2.85877L13.993 2.85876C15.0146 2.45316 15.8499 2.12149 16.5062 1.97029C17.1753 1.81612 17.8666 1.7998 18.4083 2.30084C18.9392 2.79199 19.0028 3.4839 18.9366 4.18123C18.871 4.87309 18.6552 5.77285 18.3889 6.88275L16.3725 15.2886L16.3725 15.2887C16.2028 15.9962 16.0596 16.5934 15.8878 17.0268C15.7142 17.4646 15.4359 17.9347 14.8735 18.0834C14.3043 18.2339 13.8339 17.9533 13.4764 17.6508Z"
    fill="#2C3B47" />
</svg>