<svg width="20" height="21" viewBox="0 0 20 21" fill="none">
  <path
    d="M18.7167 5.80046C18.075 6.09212 17.3833 6.28379 16.6667 6.37546C17.4 5.93379 17.9667 5.23379 18.2333 4.39212C17.5417 4.80879 16.775 5.10046 15.9667 5.26712C15.3083 4.55046 14.3833 4.13379 13.3333 4.13379C11.375 4.13379 9.77499 5.73379 9.77499 7.70879C9.77499 7.99212 9.80832 8.26712 9.86666 8.52546C6.89999 8.37546 4.25832 6.95046 2.49999 4.79212C2.19166 5.31712 2.01666 5.93379 2.01666 6.58379C2.01666 7.82546 2.64166 8.92546 3.60833 9.55046C3.01666 9.55046 2.46666 9.38379 1.98333 9.13379V9.15879C1.98333 10.8921 3.21666 12.3421 4.84999 12.6671C4.3256 12.8106 3.77507 12.8306 3.24166 12.7255C3.468 13.4359 3.91127 14.0575 4.50917 14.5029C5.10707 14.9483 5.82953 15.1952 6.57499 15.2088C5.31135 16.2092 3.74499 16.7499 2.13333 16.7421C1.84999 16.7421 1.56666 16.7255 1.28333 16.6921C2.86666 17.7088 4.74999 18.3005 6.76666 18.3005C13.3333 18.3005 16.9417 12.8505 16.9417 8.12546C16.9417 7.96712 16.9417 7.81712 16.9333 7.65879C17.6333 7.15879 18.2333 6.52546 18.7167 5.80046Z"
    fill="currentColor" />
</svg>