<svg width="40" height="40" viewBox="0 0 40 40">
  <path
    d="M18.952 11.073C18.559 7.699 18.142 4.136 18.142 0H21.857C21.857 4.09 21.443 7.648 21.05 11.025C20.73 13.778 20.423 16.411 20.367 19.115C22.232 17.17 23.863 15.107 25.572 12.946C27.679 10.282 29.904 7.469 32.829 4.545L35.455 7.171C32.563 10.063 29.755 12.286 27.088 14.397L27.086 14.399C24.914 16.118 22.836 17.762 20.885 19.633C23.579 19.577 26.191 19.272 28.927 18.953C32.301 18.559 35.864 18.143 40 18.143V21.857C35.91 21.857 32.352 21.443 28.975 21.05H28.972C26.22 20.73 23.588 20.424 20.885 20.367C22.829 22.23 24.891 23.861 27.05 25.569L27.053 25.572C29.717 27.679 32.53 29.904 35.455 32.829L32.829 35.455C29.937 32.563 27.714 29.755 25.604 27.089L25.599 27.082L25.595 27.076C23.878 24.908 22.235 22.834 20.367 20.885C20.423 23.589 20.73 26.222 21.05 28.975C21.443 32.352 21.857 35.91 21.857 40H18.143C18.143 35.864 18.559 32.301 18.953 28.927V28.922C19.272 26.188 19.576 23.577 19.633 20.885C17.765 22.834 16.123 24.908 14.405 27.076L14.401 27.082L14.396 27.089C12.286 29.755 10.063 32.563 7.171 35.455L4.545 32.83C7.47 29.905 10.283 27.68 12.947 25.573L12.95 25.57C15.11 23.862 17.171 22.231 19.115 20.368C16.411 20.425 13.778 20.731 11.025 21.051C7.648 21.444 4.09 21.858 0 21.858V18.144C4.136 18.144 7.699 18.56 11.073 18.954C13.809 19.273 16.421 19.577 19.115 19.634C17.163 17.763 15.085 16.118 12.912 14.398C10.245 12.288 7.437 10.064 4.545 7.172L7.17 4.545C10.095 7.469 12.32 10.282 14.427 12.946C16.136 15.106 17.767 17.17 19.632 19.115C19.576 16.423 19.271 13.812 18.952 11.078V11.073Z"
    fill="currentColor" />
</svg>